<svg xmlns="http://www.w3.org/2000/svg" width="20" height="20" viewBox="0 0 20 20">
    <path fill="#FFF" fill-rule="evenodd" d="M15.038 7.984c.005.108.007.217.007.326 0 3.33-2.535 7.17-7.17 7.17a7.136 7.136 0 0 1-3.863-1.131 5.056 5.056 0 0 0 3.73-1.044 2.524 2.524 0 0 1-2.353-1.75 2.504 2.504 0 0 0 1.138-.043A2.522 2.522 0 0 1 4.505 9.04v-.032c.34.189.728.302 1.142.315a2.52 2.52 0 0 1-.78-3.365 7.155 7.155 0 0 0 5.194 2.633 2.52 2.52 0 0 1 4.294-2.299 5.034 5.034 0 0 0 1.601-.611 2.527 2.527 0 0 1-1.109 1.394c.51-.06.996-.196 1.448-.397-.337.507-.765.95-1.257 1.306M10 0C4.477 0 0 4.478 0 10c0 5.523 4.477 10 10 10s10-4.477 10-10c0-5.522-4.477-10-10-10"/>
</svg>
