<svg xmlns="http://www.w3.org/2000/svg" width="20" height="20" viewBox="0 0 20 20">
    <g fill="#FFF" fill-rule="evenodd">
        <path d="M14.913 12.836c-1.171 1.297-2.598 2.278-4.072 3.196-.3.188-.607.36-.927.507-.12.056-.332.088-.416.024-.084-.064-.088-.271-.08-.41.012-.24.08-.472.092-.711.02-.427-.088-.547-.52-.639-.359-.076-.73-.128-1.086-.235-1.746-.523-3.177-1.465-3.896-3.205-.38-.918-.452-1.809-.234-2.653.204-.794.667-1.547 1.377-2.244l.033-.032c.383-.371.8-.678 1.246-.926a6.767 6.767 0 0 1 2.205-.75c2.09-.348 4.024.044 5.722 1.353.847.654 1.45 1.5 1.743 2.534.036.137.06.276.077.417.03.228.045.46.074.688a4.308 4.308 0 0 1-.68 2.223 6.067 6.067 0 0 1-.658.863M9.99.024C4.473.024 0 4.491 0 10.002c0 5.51 4.473 9.978 9.99 9.978s9.99-4.468 9.99-9.978S15.507.024 9.99.024"/>
        <path d="M9.814 9.523c0 .439-.004.874 0 1.313.004.228-.052.411-.32.411-.263 0-.331-.175-.331-.407.004-.738-.008-1.477.012-2.215a.541.541 0 0 1 .211-.387c.168-.108.324.008.436.16.392.526.787 1.053 1.239 1.652 0-.531.004-.978-.004-1.421-.004-.227.048-.407.315-.423.22-.012.332.132.332.431 0 .73.012 1.457-.008 2.187-.004.136-.092.323-.2.391-.176.108-.335-.012-.46-.175-.383-.515-.77-1.022-1.158-1.533a.496.496 0 0 1-.064.016M12.763 8.864v.52h.82c.279.003.447.131.43.343-.023.263-.203.315-.43.307-.269-.008-.532 0-.816 0v.567c.288 0 .563-.004.84 0 .263.004.419.131.403.339-.02.24-.18.315-.4.315a52.47 52.47 0 0 0-1.123 0c-.26 0-.391-.116-.391-.383 0-.758.004-1.517 0-2.27 0-.264.123-.392.383-.396.384-.004.767 0 1.151 0 .228 0 .38.104.376.335-.004.236-.168.327-.388.323h-.855M6.541 10.6c.304 0 .576.005.851 0 .22-.003.384.068.392.316.008.267-.164.335-.396.335-.363-.004-.727.004-1.09 0-.296-.004-.408-.104-.408-.391-.004-.754-.004-1.513 0-2.267 0-.22.092-.38.332-.38.24.005.323.165.323.388-.008.655-.004 1.313-.004 2M8.743 9.707v1.121c0 .228-.06.411-.324.415-.26.004-.34-.167-.34-.399V8.597c0-.223.089-.387.324-.391.256-.004.34.168.34.403-.004.367 0 .734 0 1.098"/>
    </g>
</svg>
